<svg width="30" height="31" viewBox="0 0 30 31" fill="none" xmlns="http://www.w3.org/2000/svg">
<path d="M13.125 2.64142V4.64142M4.5 13.2664H2.5M6.814 6.95563L5.39978 5.54142M19.4373 6.95563L20.8515 5.54142M23.75 13.2664H21.75M8.12509 13.2665C8.12509 10.5051 10.3637 8.26651 13.1251 8.26651C15.0076 8.26651 16.6471 9.30686 17.5001 10.844M7.5 28.2664C4.73858 28.2664 2.5 26.0278 2.5 23.2664C2.5 20.505 4.73858 18.2664 7.5 18.2664C8.08023 18.2664 8.63738 18.3653 9.15553 18.547C10.0508 16.1909 12.3298 14.5164 15 14.5164C17.6702 14.5164 19.9492 16.1909 20.8445 18.547C21.3626 18.3653 21.9198 18.2664 22.5 18.2664C25.2614 18.2664 27.5 20.505 27.5 23.2664C27.5 26.0278 25.2614 28.2664 22.5 28.2664C16.6996 28.2664 12.349 28.2664 7.5 28.2664Z" stroke="#202027" stroke-width="2" stroke-linecap="round" stroke-linejoin="round"/>
</svg>
