<svg width="30" height="31" viewBox="0 0 30 31" fill="none" xmlns="http://www.w3.org/2000/svg">
<path d="M20 23.8914V27.0164M10 23.8914V27.0164M15 25.1414V28.2664M8.75 19.5164C5.29822 19.5164 2.5 16.7182 2.5 13.2664C2.5 9.81464 5.29822 7.01642 8.75 7.01642C8.79144 7.01642 8.83278 7.01682 8.87402 7.01763C10.0117 4.79092 12.3278 3.26642 15 3.26642C18.149 3.26642 20.8036 5.38361 21.6178 8.2722C21.7031 8.26836 21.7888 8.26642 21.875 8.26642C24.9816 8.26642 27.5 10.7848 27.5 13.8914C27.5 16.998 24.9816 19.5164 21.875 19.5164C17.1793 19.5164 14.044 19.5164 8.75 19.5164Z" stroke="#202027" stroke-width="2.5" stroke-linecap="round" stroke-linejoin="round"/>
</svg>
