<svg width="30" height="30" viewBox="0 0 30 30" fill="none" xmlns="http://www.w3.org/2000/svg">
<path d="M15.7 7.6C16.5597 6.22641 17.1691 4.7113 17.5 3.125C18.125 6.25 20 9.25 22.5 11.25C25 13.25 26.25 15.625 26.25 18.125C26.2571 19.8529 25.7511 21.5439 24.796 22.9839C23.8409 24.4238 22.4798 25.5477 20.8852 26.2131C19.2906 26.8785 17.5343 27.0555 15.839 26.7216C14.1437 26.3877 12.5857 25.5579 11.3625 24.3375M8.75 19.725C11.5 19.725 13.75 17.4375 13.75 14.6625C13.75 13.2125 13.0375 11.8375 11.6125 10.675C10.1875 9.5125 9.1125 7.7875 8.75 5.975C8.3875 7.7875 7.325 9.525 5.8875 10.675C4.45 11.825 3.75 13.225 3.75 14.6625C3.75 17.4375 6 19.725 8.75 19.725Z" stroke="#202027" stroke-width="1.875" stroke-linecap="round" stroke-linejoin="round"/>
</svg>
