<svg width="127" height="135" viewBox="0 0 127 135" fill="none" xmlns="http://www.w3.org/2000/svg">
<path d="M22.9124 116.446C25.0919 118.428 28.465 118.267 30.4463 116.088C32.4277 113.908 32.2671 110.535 30.0876 108.554C27.9081 106.572 24.535 106.733 22.5537 108.912C20.5723 111.092 20.7329 114.465 22.9124 116.446ZM106.5 24.5L95.5012 28.0157L104.045 35.7831L106.5 24.5ZM26.5 112.5L27.2399 113.173L101.186 31.8321L100.446 31.1595L99.706 30.4868L25.7601 111.827L26.5 112.5Z" fill="black"/>
<circle cx="64" cy="68" r="32.5" fill="#656565"/>
<path d="M65.6516 59.048C66.5636 59.264 67.3016 59.69 67.8656 60.326C68.4416 60.95 68.7296 61.736 68.7296 62.684C68.7296 63.944 68.3036 64.934 67.4516 65.654C66.5996 66.374 65.5556 66.734 64.3196 66.734C63.3596 66.734 62.4956 66.512 61.7276 66.068C60.9716 65.624 60.4256 64.976 60.0896 64.124L61.8536 63.098C62.2256 64.178 63.0476 64.718 64.3196 64.718C65.0396 64.718 65.6096 64.538 66.0296 64.178C66.4496 63.806 66.6596 63.308 66.6596 62.684C66.6596 62.06 66.4496 61.568 66.0296 61.208C65.6096 60.848 65.0396 60.668 64.3196 60.668H63.8516L63.0236 59.426L65.7416 55.844H60.4676V53.9H68.2076V55.664L65.6516 59.048ZM60.4679 75.5V82.5H59.2779V77.418L57.0519 81.002H56.8979L54.6719 77.418V82.5H53.4679V75.5H54.7699L56.9679 79.042L59.1659 75.5H60.4679ZM62.6633 83.9H61.9353L67.5353 71.3H68.2633L62.6633 83.9ZM73.0138 82.682C71.9591 82.682 71.0818 82.332 70.3818 81.632C69.6818 80.9227 69.3318 80.0453 69.3318 79C69.3318 77.9547 69.6818 77.082 70.3818 76.382C71.0818 75.6727 71.9591 75.318 73.0138 75.318C73.7045 75.318 74.3251 75.486 74.8758 75.822C75.4265 76.1487 75.8371 76.592 76.1078 77.152L75.0858 77.74C74.9085 77.3667 74.6331 77.068 74.2598 76.844C73.8958 76.62 73.4805 76.508 73.0138 76.508C72.3138 76.508 71.7258 76.746 71.2498 77.222C70.7831 77.698 70.5498 78.2907 70.5498 79C70.5498 79.7 70.7831 80.288 71.2498 80.764C71.7258 81.24 72.3138 81.478 73.0138 81.478C73.4805 81.478 73.9005 81.3707 74.2738 81.156C74.6471 80.932 74.9318 80.6333 75.1278 80.26L76.1638 80.862C75.8651 81.4127 75.4358 81.856 74.8758 82.192C74.3158 82.5187 73.6951 82.682 73.0138 82.682Z" fill="white"/>
<circle cx="63.5" cy="67.5" r="59.5" stroke="black" stroke-linecap="round" stroke-linejoin="round" stroke-dasharray="3 10"/>
<rect width="11" height="16" transform="translate(58.5 0.5)" fill="#E9F0F6"/>
<path d="M64.156 13.682C62.672 13.682 61.4447 13.192 60.474 12.212C59.5127 11.232 59.032 10.028 59.032 8.6C59.032 7.172 59.5127 5.968 60.474 4.988C61.4447 4.008 62.672 3.518 64.156 3.518C65.052 3.518 65.8733 3.73267 66.62 4.162C67.376 4.59133 67.964 5.17 68.384 5.898L67.25 6.556C66.97 6.01467 66.55 5.58533 65.99 5.268C65.4393 4.94133 64.828 4.778 64.156 4.778C63.0267 4.778 62.1027 5.142 61.384 5.87C60.6747 6.598 60.32 7.508 60.32 8.6C60.32 9.68267 60.6747 10.588 61.384 11.316C62.1027 12.044 63.0267 12.408 64.156 12.408C64.828 12.408 65.4393 12.2493 65.99 11.932C66.55 11.6053 66.97 11.176 67.25 10.644L68.384 11.288C67.9733 12.016 67.39 12.5993 66.634 13.038C65.878 13.4673 65.052 13.682 64.156 13.682Z" fill="black"/>
<rect width="14" height="16" transform="translate(56.5 118.5)" fill="#E9F0F6"/>
<path d="M65.53 121.518C66.9487 121.518 68.148 122.013 69.128 123.002C70.1173 123.982 70.612 125.181 70.612 126.6C70.612 128.009 70.1173 129.209 69.128 130.198C68.148 131.187 66.9487 131.682 65.53 131.682C64.2047 131.682 63.0707 131.243 62.128 130.366C61.1853 129.479 60.6533 128.383 60.532 127.076H58.852V131.5H57.55V121.7H58.852V125.844H60.574C60.7513 124.603 61.302 123.571 62.226 122.75C63.15 121.929 64.2513 121.518 65.53 121.518ZM62.828 129.316C63.556 130.044 64.4567 130.408 65.53 130.408C66.6033 130.408 67.4993 130.044 68.218 129.316C68.946 128.579 69.31 127.673 69.31 126.6C69.31 125.517 68.946 124.612 68.218 123.884C67.4993 123.147 66.6033 122.778 65.53 122.778C64.4567 122.778 63.556 123.147 62.828 123.884C62.1093 124.612 61.75 125.517 61.75 126.6C61.75 127.673 62.1093 128.579 62.828 129.316Z" fill="black"/>
<rect width="8" height="16" transform="translate(118.5 59.5)" fill="#E9F0F6"/>
<path d="M125.15 67.418C125.598 67.6327 125.953 67.9407 126.214 68.342C126.485 68.7433 126.62 69.2053 126.62 69.728C126.62 70.512 126.345 71.17 125.794 71.702C125.243 72.234 124.571 72.5 123.778 72.5H119.55V62.7H123.47C124.235 62.7 124.884 62.9567 125.416 63.47C125.948 63.9833 126.214 64.618 126.214 65.374C126.214 66.242 125.859 66.9233 125.15 67.418ZM123.47 63.918H120.852V66.914H123.47C123.881 66.914 124.226 66.7693 124.506 66.48C124.786 66.1907 124.926 65.836 124.926 65.416C124.926 65.0053 124.781 64.6553 124.492 64.366C124.212 64.0673 123.871 63.918 123.47 63.918ZM123.778 71.282C124.217 71.282 124.585 71.128 124.884 70.82C125.183 70.512 125.332 70.134 125.332 69.686C125.332 69.2473 125.178 68.874 124.87 68.566C124.571 68.258 124.207 68.104 123.778 68.104H120.852V71.282H123.778Z" fill="black"/>
<rect width="8" height="16" transform="translate(0.5 58.5)" fill="#E9F0F6"/>
<path d="M6.31 66.432C6.814 66.6467 7.206 66.9593 7.486 67.37C7.766 67.7807 7.906 68.266 7.906 68.826C7.906 69.666 7.58867 70.352 6.954 70.884C6.32867 71.416 5.498 71.682 4.462 71.682C3.51933 71.682 2.75867 71.472 2.18 71.052C1.61067 70.632 1.20933 70.0907 0.976 69.428L2.082 68.798C2.37133 69.8993 3.16467 70.45 4.462 70.45C5.14333 70.45 5.67067 70.3007 6.044 70.002C6.41733 69.694 6.604 69.288 6.604 68.784C6.604 68.28 6.42667 67.874 6.072 67.566C5.72667 67.258 5.24133 67.104 4.616 67.104H3.468V65.914H4.294C4.89133 65.914 5.36733 65.7693 5.722 65.48C6.07667 65.1813 6.254 64.794 6.254 64.318C6.254 63.8513 6.086 63.4733 5.75 63.184C5.42333 62.8853 4.966 62.736 4.378 62.736C3.29533 62.736 2.572 63.2167 2.208 64.178L1.116 63.548C1.704 62.1947 2.79133 61.518 4.378 61.518C5.32067 61.518 6.08133 61.7793 6.66 62.302C7.248 62.8247 7.542 63.4873 7.542 64.29C7.542 65.2233 7.13133 65.9373 6.31 66.432Z" fill="black"/>
</svg>
