<svg width="30" height="30" viewBox="0 0 30 30" fill="none" xmlns="http://www.w3.org/2000/svg">
<path d="M22.1817 20C23.1702 18.5827 23.75 16.8591 23.75 15C23.75 14.3564 23.6805 13.729 23.5486 13.125M7.81836 20C6.82977 18.5827 6.25 16.8591 6.25 15C6.25 10.1675 10.1675 6.25002 15 6.25002C15.5277 6.25002 16.0444 6.29672 16.5464 6.38623M20.6249 9.37502L14.9999 15M27.5 15C27.5 21.9036 21.9036 27.5 15 27.5C8.09644 27.5 2.5 21.9036 2.5 15C2.5 8.09646 8.09644 2.50002 15 2.50002C21.9036 2.50002 27.5 8.09646 27.5 15ZM16.25 15C16.25 15.6904 15.6904 16.25 15 16.25C14.3096 16.25 13.75 15.6904 13.75 15C13.75 14.3097 14.3096 13.75 15 13.75C15.6904 13.75 16.25 14.3097 16.25 15Z" stroke="#202027" stroke-width="1.875" stroke-linecap="round" stroke-linejoin="round"/>
</svg>
