<svg width="30" height="31" viewBox="0 0 30 31" fill="none" xmlns="http://www.w3.org/2000/svg">
<path d="M26.25 4.01415L18.75 4.01415M26.25 9.01415L18.75 9.01415M26.25 14.0141L18.75 14.0141M6.875 17.4614V5.88914C6.875 4.16325 8.27411 2.76414 10 2.76414C11.7259 2.76414 13.125 4.16326 13.125 5.88915V17.4614C14.6325 18.4704 15.625 20.1889 15.625 22.1391C15.625 25.2457 13.1066 27.7641 10 27.7641C6.8934 27.7641 4.375 25.2457 4.375 22.1391C4.375 20.1889 5.36752 18.4704 6.875 17.4614ZM11.25 22.1391C11.25 22.8295 10.6904 23.3891 10 23.3891C9.30964 23.3891 8.75 22.8295 8.75 22.1391C8.75 21.4488 9.30964 20.8891 10 20.8891C10.6904 20.8891 11.25 21.4488 11.25 22.1391Z" stroke="#202027" stroke-width="1.875" stroke-linecap="round" stroke-linejoin="round"/>
</svg>
