<svg width="318" height="355" viewBox="0 0 318 355" fill="none" xmlns="http://www.w3.org/2000/svg">
<path d="M5.31402 311.644C4.79145 310.366 3.3318 309.754 2.0538 310.276C0.775798 310.799 0.163404 312.259 0.685977 313.536L5.31402 311.644ZM40.1505 348.212L41.0503 345.88L40.1505 348.212ZM85.7931 349.708L86.2837 352.159L85.7931 349.708ZM161.916 302.925L163.64 304.735L161.916 302.925ZM203.807 239.479L201.376 238.898L203.807 239.479ZM181.924 132.668L183.437 130.679L181.924 132.668ZM140.345 139.077L138.043 138.103L140.345 139.077ZM152.694 192.91L150.899 194.65L152.694 192.91ZM246.636 186.287L248.349 188.108L246.636 186.287ZM300.768 1.23223C299.791 0.255922 298.209 0.255922 297.232 1.23223L281.322 17.1421C280.346 18.1184 280.346 19.7014 281.322 20.6777C282.299 21.654 283.882 21.654 284.858 20.6777L299 6.53553L313.142 20.6777C314.118 21.654 315.701 21.654 316.678 20.6777C317.654 19.7014 317.654 18.1184 316.678 17.1421L300.768 1.23223ZM3 312.59L0.685977 313.536C6.341 327.366 13.695 335.79 20.8803 341.194C28.0229 346.565 34.9176 348.873 39.2508 350.545L40.1505 348.212L41.0503 345.88C36.5555 344.146 30.3659 342.071 23.8856 337.198C17.4481 332.356 10.6408 324.671 5.31402 311.644L3 312.59ZM40.1505 348.212L39.2508 350.545C53.6627 356.104 72.1554 354.987 86.2837 352.159L85.7931 349.708L85.3024 347.256C71.5054 350.018 54.1409 350.93 41.0503 345.88L40.1505 348.212ZM85.7931 349.708L86.2837 352.159C114.601 346.491 141.039 326.263 163.64 304.735L161.916 302.925L160.192 301.114C137.697 322.541 112.138 341.885 85.3024 347.256L85.7931 349.708ZM161.916 302.925L163.64 304.735C179.77 289.372 199.701 267.434 206.239 240.06L203.807 239.479L201.376 238.898C195.2 264.758 176.232 285.836 160.192 301.114L161.916 302.925ZM203.807 239.479L206.239 240.06C210.539 222.053 211.642 200.004 208.337 179.882C205.045 159.832 197.294 141.221 183.437 130.679L181.924 132.668L180.41 134.658C192.782 144.071 200.198 161.171 203.404 180.692C206.597 200.139 205.526 221.518 201.376 238.898L203.807 239.479ZM181.924 132.668L183.437 130.679C176.559 125.445 167.764 121.618 159.326 121.953C155.064 122.122 150.889 123.357 147.174 126.016C143.464 128.671 140.348 132.651 138.043 138.103L140.345 139.077L142.648 140.05C144.66 135.292 147.25 132.11 150.084 130.081C152.914 128.056 156.119 127.084 159.524 126.949C166.419 126.675 174.096 129.854 180.41 134.658L181.924 132.668ZM140.345 139.077L138.043 138.103C133.882 147.946 134.424 159.301 137.25 169.441C140.076 179.582 145.281 188.855 150.899 194.65L152.694 192.91L154.489 191.169C149.546 186.071 144.708 177.577 142.067 168.099C139.425 158.62 139.074 148.505 142.648 140.05L140.345 139.077ZM152.694 192.91L150.899 194.65C164.839 209.028 182.656 213.653 200.23 211.532C217.741 209.418 235.047 200.62 248.349 188.108L246.636 186.287L244.923 184.466C232.292 196.347 215.947 204.599 199.631 206.568C183.377 208.53 167.189 204.269 154.489 191.169L152.694 192.91ZM246.636 186.287L248.349 188.108C271.58 166.257 284.849 137.212 292.32 105.088C299.788 72.9778 301.5 37.629 301.5 3H299H296.5C296.5 37.5199 294.786 72.4111 287.45 103.955C280.117 135.486 267.204 163.51 244.923 184.466L246.636 186.287Z" fill="#B8B8B8"/>
</svg>
