<svg width="30" height="31" viewBox="0 0 30 31" fill="none" xmlns="http://www.w3.org/2000/svg">
<path d="M11.8866 6.33333C12.3444 5.82188 13.0096 5.5 13.75 5.5C15.1307 5.5 16.25 6.61929 16.25 8C16.25 9.38071 15.1307 10.5 13.75 10.5H2.50003M15.6366 24.6667C16.0944 25.1781 16.7596 25.5 17.5 25.5C18.8807 25.5 20 24.3807 20 23C20 21.6193 18.8807 20.5 17.5 20.5H2.50003M20.9549 9.25C21.6415 8.48281 22.6394 8 23.75 8C25.8211 8 27.5 9.67893 27.5 11.75C27.5 13.8211 25.8211 15.5 23.75 15.5H2.5" stroke="#202027" stroke-width="1.875" stroke-linecap="round" stroke-linejoin="round"/>
</svg>
